# xmcd
#
# Track frame offsets:
# 150
# 14000
# 29012
# 42860
# 56885
# 72290
# 84713
# 99928
# 118998
# 130410
# 140123
# 154490
# 164434
# 173957
# 185625
# 198845
# 211758
# 221342
# 231765
# 246273
# 260135
# 270603
# 281886
# 295187
#
# Disc length: 4081 seconds
#
#
# Revision: 3
# Processed by: cddbd v1.5.1PL2 Copyright (c) Steve Scherf et al.
# Submitted via: FreeRIP 2.945 
#
DISCID=840fef18
DTITLE=Tom T. Hall - The Ultimate Collection
DYEAR=2001
DGENRE=Country
TTITLE0=Ballad Of Forty Dollars
TTITLE1=Homecoming
TTITLE2=A Week In County Jail
TTITLE3=Shoeshine Man
TTITLE4=Salute To A Switchblade
TTITLE5=The Year That Clayton Delaney Died
TTITLE6=Me And Jesus
TTITLE7=Old Dogs, Children, And Watermelon Wine
TTITLE8=Ravishing Ruby
TTITLE9=I Love
TTITLE10=That Song Is Driving Me Crazy
TTITLE11=Country Is
TTITLE12=I Care
TTITLE13=Deal
TTITLE14=I Like Beer
TTITLE15=Faster Horses (The Cowboy And The Poet)
TTITLE16=Fox On The Run
TTITLE17=Your Man Loves You, Honey
TTITLE18=What Have You Got To Lose
TTITLE19=The Old Side Of Town
TTITLE20=Jesus On The Radio (Daddy On The Phone)
TTITLE21=You Show Me Your Heart (And I'll Show You Mine)
TTITLE22=Harper Valley PTA
TTITLE23=PS - I Love You
EXTD=Hip-o Records
EXTT0=
EXTT1=
EXTT2=
EXTT3=
EXTT4=
EXTT5=
EXTT6=
EXTT7=
EXTT8=
EXTT9=
EXTT10=
EXTT11=
EXTT12=
EXTT13=
EXTT14=
EXTT15=
EXTT16=
EXTT17=
EXTT18=
EXTT19=
EXTT20=
EXTT21=
EXTT22=Previously Unreleased
EXTT23=
PLAYORDER=
